<svg width="24" height="25" viewBox="0 0 24 25" fill="none" xmlns="http://www.w3.org/2000/svg">
<path d="M23.4675 10.9884L21.8354 9.09285C21.5233 8.73294 21.2713 8.06111 21.2713 7.58123V5.54174C21.2713 4.27006 20.2273 3.22632 18.9552 3.22632H16.9151C16.447 3.22632 15.763 2.97438 15.403 2.66246L13.5069 1.03087C12.6788 0.323044 11.3227 0.323044 10.4827 1.03087L8.59852 2.67446C8.2385 2.97438 7.55445 3.22632 7.08643 3.22632H5.0103C3.73822 3.22632 2.69416 4.27006 2.69416 5.54174V7.59322C2.69416 8.06111 2.44215 8.73294 2.14213 9.09285L0.522031 11.0004C-0.17401 11.8282 -0.17401 13.1718 0.522031 13.9996L2.14213 15.9072C2.44215 16.2671 2.69416 16.9389 2.69416 17.4068V19.4583C2.69416 20.7299 3.73822 21.7737 5.0103 21.7737H7.08643C7.55445 21.7737 8.2385 22.0256 8.59852 22.3375L10.4947 23.9691C11.3227 24.677 12.6788 24.677 13.5189 23.9691L15.415 22.3375C15.775 22.0256 16.447 21.7737 16.9271 21.7737H18.9672C20.2393 21.7737 21.2833 20.7299 21.2833 19.4583V17.4188C21.2833 16.9509 21.5353 16.2671 21.8474 15.9072L23.4795 14.0116C24.1755 13.1838 24.1755 11.8162 23.4675 10.9884ZM16.9871 10.2326L11.1907 16.0271C11.0227 16.1951 10.7947 16.2911 10.5547 16.2911C10.3147 16.2911 10.0867 16.1951 9.91864 16.0271L7.01442 13.1239C6.6664 12.7759 6.6664 12.2001 7.01442 11.8522C7.36244 11.5043 7.93848 11.5043 8.2865 11.8522L10.5547 14.1196L15.715 8.96088C16.063 8.61297 16.639 8.61297 16.9871 8.96088C17.3351 9.30879 17.3351 9.88465 16.9871 10.2326Z" fill="#047857"/>
</svg>
