<svg width="16" height="17" viewBox="0 0 16 17" fill="none" xmlns="http://www.w3.org/2000/svg">
<path d="M15.9765 12.5933L15.2499 15.7432C15.1478 16.1885 14.7564 16.5 14.2979 16.5C6.41311 16.4994 0 10.0872 0 2.20322C0 1.74512 0.311561 1.35327 0.756947 1.25171L3.90724 0.525183C4.36604 0.418876 4.83483 0.656988 5.02548 1.0914L6.47936 4.48186C6.64932 4.88121 6.53468 5.3465 6.19871 5.62086L4.51605 6.97173C5.57803 9.13475 7.33694 10.8934 9.5009 11.9559L10.8785 10.2747C11.1501 9.93783 11.6189 9.82128 12.0183 9.99424L15.4093 11.4476C15.8171 11.6621 16.0828 12.1371 15.9765 12.5933Z" fill="white"/>
</svg>
